<svg width="160" height="49" fill="none" xmlns="http://www.w3.org/2000/svg"><g clip-path="url(#a)"><path d="M1.16625 23.4531c-.08467 0-.14488.0846-.11477.1635.26716.7085 1.27563 3.7097 1.27563 8.7705v7.0923c0 5.0797-1.657571 7.1826-2.2897445 7.799-.0790217.077-.0244591.2086.0865475.2086H7.39202c.11101 0 .16369-.1335.08467-.2105-.64534-.6108-2.31044-2.6836-2.31044-7.7989V28.3054l9.03485 19.5311c.0677.1447.2126.2387.3725.2387s.301-.0902.3688-.2312l10.1147-20.9406.0979 12.5742c0 5.2431-1.0518 7.2426-1.4544 7.8177-.0565.0808 0 .1917.0997.1917h10.826c.1034 0 .1618-.1222.094-.1992-.5362-.6221-2.0094-2.7851-2.0094-7.8084v-7.0923c0-5.2751 1.033-8.0789 1.3246-8.7648.0338-.0808-.0245-.1692-.1129-.1692h-9.6933c-.1825 0-.35.1034-.4309.2688L17.155 37.1961l-6.3161-13.4667c-.0791-.1692-.2484-.2763-.4346-.2763H1.16625ZM54.6941 47.2525c-3.0611 0-8.0527-1.7815-8.0527-11.4766 0-11.0463 5.7498-11.8788 8.0527-11.8788 2.1091 0 8.0301.8306 8.0301 11.8788 0 9.697-4.9708 11.4766-8.0301 11.4766Zm0-24.6314c-8.5569 0-16.698 5.3127-16.698 13.1548 0 6.194 6.8034 12.7245 16.698 12.7245 9.8947 0 16.6755-6.5286 16.6755-12.7245 0-7.8421-8.1204-13.1548-16.6755-13.1548ZM109.408 23.5352h9.018c.092 0 .152.0977.109.1785-.322.5976-.813 2.832-.813 8.6728v7.0923c0 5.2581 1.048 7.237 1.451 7.8027.056.0808-.002.1898-.1.1898h-10.326c-.09 0-.15-.094-.109-.1748.343-.6728 1.5-3.2793 1.5-7.8177v-7.0923c0-5.6378-.529-8.0451-.839-8.6747-.04-.0808.019-.1748.109-.1748M156.813 26.5647h.879c.246 0 .498.0771.498.3477 0 .3026-.235.3646-.498.3646h-.879v-.7123Zm1.818.3477c0-.6803-.636-.7874-1.152-.7874h-1.108v2.9185h.44v-1.3437h.512l.753 1.3437h.491l-.734-1.3587c.374-.0376.798-.1879.798-.7724Z" fill="#3B2200"></path><path d="M157.387 29.7455c-1.202 0-2.177-.9734-2.177-2.1762 0-1.2027.975-2.1743 2.177-2.1743s2.177.9735 2.177 2.1743c0 1.2009-.975 2.1762-2.177 2.1762Zm0-4.7846c-1.443 0-2.614 1.1689-2.614 2.6103s1.171 2.6103 2.614 2.6103c1.443 0 2.611-1.1689 2.611-2.6103s-1.17-2.6103-2.611-2.6103ZM101.799 32.3865c0-6.1565 1.174-8.0865 1.703-8.6427.075-.079.021-.2068-.086-.2068h-6.0493c-.1073 0-.1637.1278-.0903.2049.5249.545 1.6707 2.4449 1.6707 8.6446v3.4578L84.1814 23.646c-.0866-.0714-.1938-.1108-.3067-.1108h-8.1562c-.0884 0-.1486.0902-.111.171.2916.6427 1.2437 3.1609 1.2437 8.6784v7.0923c0 5.1153-1.6463 7.1863-2.286 7.7989-.079.0771-.0264.2086.0846.2086h7.2889c.111 0 .1636-.1353.0827-.2105-.6509-.607-2.3048-2.6591-2.3048-7.797v-9.8135l21.1474 18.2608c.102.0883.234.1371.369.1371.312 0 .565-.2518.565-.5637v-15.113l.001.0019ZM150.958 32.3865c0-6.1565 1.174-8.0865 1.702-8.6427.076-.079.021-.2068-.086-.2068h-6.049c-.107 0-.164.1278-.088.2049.524.545 1.67 2.4449 1.67 8.6446v3.4578L133.342 23.646c-.087-.0714-.194-.1108-.307-.1108h-8.156c-.089 0-.149.0902-.111.171.291.6427 1.243 3.1609 1.243 8.6784v7.0923c0 5.1153-1.646 7.1863-2.286 7.7989-.079.0771-.026.2086.085.2086h7.289c.111 0 .164-.1353.083-.2105-.651-.607-2.305-2.6591-2.305-7.797v-9.8135l21.148 18.2608c.101.0883.233.1371.368.1371.313 0 .565-.2518.565-.5637v-15.113.0019Z" fill="#3B2200"></path><path d="m112.226 20.0414.009.0094c-2.102-1.1389-6.036-5.5514-6.036-10.0372 0-4.24896 2.986-8.08265 7.225-9.193288-2.521 1.507168-4.418 4.143768-5.018 7.244538-.933 4.82025 1.976 10.30205 3.803 11.95955.003.0038.005.0057.009.0076.002.0037.008.0075.009.0094" fill="#531F4F"></path><path d="M120.774 1.8421c-.011.11463-.026.23115-.043.34766-.429 2.91097-2.183 5.46112-3.987 7.72563-.256.32131-.514.63711-.772.94531-2.011 2.4016-4.013 5.2093-4.137 6.8705-.1 1.3381.258 2.1424.376 2.2984-.197-.203-.566-.9904-.673-2.2194-.155-1.8154.957-4.717 2.498-7.3216.202-.3402.407-.68597.619-1.03551 1.515-2.49565 3.314-5.08903 4.303-7.63918.104-.2631.196-.5168.277-.75922.566.21047 1.082.47545 1.535.78741" fill="#CA8D6C"></path><path d="M122.477 3.63468c-.267 3.20602-2.333 5.62274-4.572 7.59782-2.481 2.1894-5.405 4.8805-5.774 6.4196-.241 1.0054-.124 1.7176-.015 2.0935.008.0206.013.0432.019.062.049.1597.096.2424.096.2424l-.008-.0075s-.007-.0057-.009-.0094c-.119-.1579-.476-.9622-.376-2.3002.122-1.6632 2.126-4.4708 4.135-6.8706.256-.3063.514-.6239.772-.94526 1.806-2.26451 3.557-4.81278 3.986-7.72563.017-.11651.032-.23303.044-.34766.722.49237 1.296 1.10312 1.702 1.79093Z" fill="#EA580C"></path><path d="M123.185 6.22821c0 3.144-2.37 5.25439-4.935 6.89129-2.564 1.6349-5.586 3.6589-6.017 4.918-.267.7874-.201 1.3756-.114 1.7101-.11-.3759-.226-1.0881.015-2.0935.368-1.5391 3.29-4.2302 5.774-6.4195 2.239-1.97326 4.305-4.39187 4.572-7.59788.461.77801.705 1.66126.705 2.59149Z" fill="#F0C200"></path><path d="M119.239 1.05465c-.081.24243-.173.49613-.277.75922-.989 2.55016-2.788 5.14541-4.302 7.63918-.215.34955-.42.69535-.619 1.03545-1.541 2.6047-2.653 5.5063-2.499 7.3216.105 1.229.474 2.0165.674 2.2213 0 0-.006 0-.01-.0056l-.026-.0264c-.284-.3006-.672-1.0523-.932-2.1085-.485-1.9713-.218-4.9706.862-7.7726.143-.37208.297-.74981.467-1.12754 1.221-2.72681 3.078-5.36528 4.621-7.55274.195-.27813.385-.539346.57-.78177.525.093963 1.018.22739 1.475.3984" fill="#C51F1E"></path><path d="M117.765.654099c-.185.242424-.375.503641-.57.781771-1.543 2.18746-3.4 4.82594-4.621 7.55274-.169.37773-.324.75358-.467 1.12759-1.078 2.8001-1.347 5.8012-.86 7.7726.26 1.0542.648 1.8078.932 2.1085-.373-.3589-.832-1.0843-1.229-2.0296-.882-2.0991-1.403-5.2243-.775-8.22175.087-.4078.188-.81372.314-1.21776.922-2.96171 2.847-5.63589 4.937-7.46817.23-.201082.461-.387128.693-.56002.577.009396 1.128.062016 1.648.155978" fill="#DF5E98"></path><path d="M116.115.501879c-.232.172892-.463.358938-.693.560021-2.09 1.83227-4.015 4.50646-4.937 7.46817-.126.40404-.227.81184-.314 1.21776-.628 2.99737-.107 6.12257.775 8.22177.395.9452.854 1.6706 1.229 2.0296l.026.0263c-1.827-1.6575-4.735-7.1393-3.802-11.95961.6-3.09889 2.497-5.73737 5.018-7.244537C114.216.612755 115.061.5 115.938.5h.175" fill="#8A2484"></path></g><defs><clipPath id="a"><path fill="#fff" transform="translate(0 .5)" d="M0 0h160v48H0z"></path></clipPath></defs></svg>